<?xml version="1.0" encoding="utf-8"?>
<!-- Generator: Adobe Illustrator 21.1.0, SVG Export Plug-In . SVG Version: 6.00 Build 0)  -->
<svg version="1.1" id="Capa_1" xmlns="http://www.w3.org/2000/svg" xmlns:xlink="http://www.w3.org/1999/xlink" x="0px" y="0px"
	 viewBox="0 0 90 60" style="enable-background:new 0 0 90 60;" xml:space="preserve">
<style type="text/css">
	.st0{fill:#1E8A43;stroke:#020203;stroke-miterlimit:10;}
	.st1{fill:#020203;}
	.st2{font-family:'Trattatello';}
	.st3{font-size:20.9133px;}
</style>
<path class="st0" d="M83.5,44.8h-77c-2.2,0-4-1.4-4-3.2V18.5c0-1.8,1.8-3.2,4-3.2h77c2.2,0,4,1.4,4,3.2v23.1
	C87.5,43.4,85.7,44.8,83.5,44.8z M44.9,7.7c-8.3,0-15,10.3-15,22.9s6.7,22.9,15,22.9s15-10.3,15-22.9S53.2,7.7,44.9,7.7z"/>
<text transform="matrix(1 0 0 1 4.6643 36.7829)" class="st1 st2 st3">GA</text>
<polygon class="st1" points="54.8,28.3 49.9,33.1 51.1,39.8 45,36.7 39,39.8 40.1,33.1 35.2,28.4 42,27.4 45,21.3 48,27.4 "/>
<text transform="matrix(1 0 0 1 63.9946 36.783)" class="st1 st2 st3">CA</text>
</svg>
